<svg width="650" height="700" xmlns="http://www.w3.org/2000/svg">
<rect height="700" width="720" fill="black" opacity="1"/>
<rect height="25" width="72" fill="white" y="31.7%" x="32.5%" opacity="1"/>
<rect height="25" width="124" fill="white" y="34.9%" x="29.5%" opacity="1"/>
<rect height="25" width="151" fill="white" y="38%" x="26.4%" opacity="1"/>
<rect height="25" width="200.2" fill="white" y="41%" x="23.5%" opacity="1"/>
<rect height="25" width="215.2" fill="white" y="44%" x="23.5%" opacity="1"/>
<rect height="22.5" width="210" fill="white" y="47%" x="23.5%" opacity="1"/>
<rect height="22.5" width="208" fill="white" y="50.2%" x="26.3%" opacity="1"/>
<rect height="22.5" width="189" fill="white" y="53%" x="29.3%" opacity="1"/>
<rect height="22.5" width="149" fill="white" y="56%" x="32.5%" opacity="1"/>
<rect height="25" width="130" fill="white" y="59%" x="32.5%" opacity="1"/>

<rect height="24" width="55" fill="white" y="53.2%" x="8.5%" opacity="1"/>
<rect height="24" width="100" fill="white" y="56.2%" x="5%" opacity="1"/>
<rect height="24" width="130" fill="white" y="59.5%" x="2.4%" opacity="1"/>
<rect height="20" width="130" fill="white" y="63%" x="2.4%" opacity="1"/>
<rect height="20" width="196" fill="white" y="63%" x="29.5%" opacity="1"/>


<text y="18%" x="65%" fill="white" text-anchor="start" font-size="18" xml:space="preserve" font-family="monospace">░  ░  ░  ░  ░  ░</text>

<text y="28%" x="70%" fill="white" text-anchor="start" font-size="18" xml:space="preserve" font-family="monospace">░░ █ </text>
<rect height="25" width="40" fill="black" y="24%" x="70%" opacity="1"/>

<text y="32%" x="60%" fill="white" text-anchor="start" font-size="18" xml:space="preserve" font-family="monospace">░░░██</text>
<rect height="25" width="40" fill="black" y="28%" x="60%" opacity="1"/>
<!-- 

<text y="18%" x="65%" fill="white" text-anchor="start" font-size="18" xml:space="preserve" font-family="monospace">░  ░  ░  ░  ░  ░</text>

<text y="22%" x="65%" fill="white" text-anchor="start" font-size="18" xml:space="preserve" font-family="monospace">░   ░   ░   ░   ░ </text>

<text y="28%" x="65%" fill="white" text-anchor="start" font-size="18" xml:space="preserve" font-family="monospace">░  ░ ░</text>

<text y="33%" x="60%" fill="white" text-anchor="start" font-size="18" xml:space="preserve" font-family="monospace">░  ░   ░</text> -->
<rect height="20" width="289" fill="white" y="65.8%" x="2%" opacity="1"/>
<rect height="21" width="289" fill="white" y="68.8%" x="5%" opacity="1"/>
<rect height="20" width="286" fill="white" y="72%" x="9%" opacity="1"/>
<rect height="20" width="204" fill="white" y="75%" x="23.5%" opacity="1"/>
<rect height="20" width="204" fill="white" y="78%" x="21%" opacity="1"/>
<rect height="20" width="184" fill="white" y="81%" x="21%" opacity="1"/>
<text y="31%" fill="black" text-anchor="start" font-size="18" xml:space="preserve" font-family="monospace">
<tspan x="4%" dy="1.2em">                    ██████████████
</tspan><tspan x="4%" dy="1.2em">                  ██▓▓▓▓▲▓▓▓▓▓▓▓▲▓████
</tspan><tspan x="4%" dy="1.2em">                ████▓▓▓▓▓▓░░░░▓▓▓▓░░██
</tspan><tspan x="4%" dy="1.2em">              ██▓▓▓▓▓▓▓▓░░░░░░░░░░░░░░██
</tspan><tspan x="4%" dy="1.2em">              ██▓▓▓▓▓▓░░░░░░X░░░░░X░░░██
</tspan><tspan x="4%" dy="1.2em">              ██▓▓██▓▓░░██░░░░░░░░░░░░░░██
</tspan><tspan x="4%" dy="1.2em">                ██▓▓▓▓██░░░░░░░░░░░░░░░░░░██
</tspan><tspan x="4%" dy="1.2em">    ██████        ██▓▓██░░░░░░░░████░░░░░░██
</tspan><tspan x="4%" dy="1.2em">  ██▓▓▓▓▓▓██        ██░░████████░░░░██████
</tspan><tspan x="4%" dy="1.2em">██▓▓▓▓▓▓▓▓▓▓██      ████░░░░░░░░░░░░░░██      
</tspan><tspan x="4%" dy="1.2em">██▓▓▓▓██▓▓▓▓██    ██▓▓▓▓██████████████        
</tspan><tspan x="4%" dy="1.2em">██▓▓▓▓▓▓██████████▓▓▓▓▓▓▓▓▓▓██▓▓▓▓██        
</tspan><tspan x="4%" dy="1.2em">  ██▓▓▓▓▓▓▓▓▓▓██▓▓▓▓▓▓▓▓██▓▓▓▓██▓▓▓▓██    
</tspan><tspan x="4%" dy="1.2em">    ████████████▓▓▓▓▓▓▓▓▓▓██▓▓▓▓██▓▓▓▓██    
</tspan><tspan x="4%" dy="1.2em">              ██████████▓▓██░░░░░░██░░░░██
</tspan><tspan x="4%" dy="1.2em">            ██░░░░░░░░░░██░░░░░░██░░░░██
</tspan><tspan x="4%" dy="1.2em">            ██████████████████████████</tspan>
</text>
<!-- <rect height="220" width="650" fill="black" opacity="0"/><text y="2%" fill="white" text-anchor="start" font-size="18" xml:space="preserve" font-family="monospace">
<tspan x="45%" dy="1.2em">   ██████████████████████████████
</tspan><tspan x="45%" dy="1.2em"> ██                              ██
</tspan><tspan x="45%" dy="1.2em">██       Connect wallet first     ██
</tspan><tspan x="45%" dy="1.2em">██             please!            ██
</tspan><tspan x="45%" dy="1.2em">██                                ██
</tspan><tspan x="45%" dy="1.2em"> ██                              ██
</tspan><tspan x="45%" dy="1.2em">   ██████████████████████████████
</tspan><tspan x="45%" dy="1.2em">             ██████     
</tspan><tspan x="45%" dy="1.2em">            ███       
</tspan><tspan x="45%" dy="1.2em">           ██        
</tspan></text> -->
</svg>